<?xml version="1.0" encoding="UTF-8"?>
<svg version="1.1" xmlns="http://www.w3.org/2000/svg" width="1536" height="495">
<path d="M0 0 C506.88 0 1013.76 0 1536 0 C1536 163.35 1536 326.7 1536 495 C1029.12 495 522.24 495 0 495 C0 331.65 0 168.3 0 0 Z " fill="#FAFBFD" transform="translate(0,0)"/>
<path d="M0 0 C1.47657423 -0.00628238 2.95314693 -0.01293067 4.42971802 -0.01991272 C9.2319432 -0.04073093 14.03416794 -0.05128862 18.83642578 -0.0612793 C20.50154765 -0.06533409 22.16666936 -0.06945121 23.83179092 -0.07362938 C31.65393766 -0.09262591 39.47607525 -0.10687277 47.29824054 -0.11524135 C56.28255164 -0.12501695 65.2666166 -0.15136825 74.25084102 -0.19174224 C81.22874072 -0.22200968 88.20657018 -0.23671992 95.18453419 -0.24002236 C99.33764155 -0.24235902 103.49048428 -0.25113869 107.64352036 -0.27648354 C111.55238517 -0.29995948 115.46081455 -0.30392031 119.3697319 -0.29372215 C120.79260213 -0.29323153 122.21549531 -0.2994098 123.63829803 -0.3132782 C133.49276341 -0.40385363 141.64383509 1.02492507 150.90673828 4.17700195 C150.90673828 4.50700195 150.90673828 4.83700195 150.90673828 5.17700195 C150.20291016 5.24016602 149.49908203 5.30333008 148.77392578 5.3684082 C136.73236395 6.86181339 126.05135116 11.69882249 117.80908203 20.72387695 C110.22750642 30.50052887 106.76757328 40.8450888 107.90673828 53.17700195 C109.94225348 65.93745857 115.36098059 76.95436286 125.91845703 84.6418457 C129.75906073 87.16567099 133.44420673 88.94980578 137.90673828 90.17700195 C136.27496168 94.00892678 133.73087536 96.93833936 131.03173828 100.05200195 C130.55502686 100.60847412 130.07831543 101.16494629 129.5871582 101.73828125 C128.56735225 102.92786182 127.5457276 104.11588523 126.52246094 105.30249023 C124.84796015 107.24519453 123.17940965 109.19287582 121.51220703 111.1418457 C118.64743173 114.49009906 115.77819936 117.83448094 112.90673828 121.17700195 C109.27021748 118.4432538 106.46728407 115.62243605 103.65673828 112.05200195 C100.67034522 108.32395498 97.62887528 104.70332671 94.40673828 101.17700195 C88.9028375 95.1274971 83.69320374 88.83706199 78.73876953 82.3293457 C78.05169922 81.43344727 77.36462891 80.53754883 76.65673828 79.61450195 C76.05345703 78.80883789 75.45017578 78.00317383 74.82861328 77.1730957 C71.75545318 73.98125665 68.27982218 72.88938588 63.90673828 72.73950195 C63.26736328 72.69954102 62.62798828 72.65958008 61.96923828 72.6184082 C56.60809806 74.07038368 52.46940504 80.8979151 48.90673828 85.05200195 C47.75571511 86.38665332 46.60467289 87.72128826 45.45361328 89.0559082 C44.57479492 90.0770874 44.57479492 90.0770874 43.67822266 91.11889648 C40.84259946 94.41331538 38.00102217 97.70255904 35.15673828 100.98950195 C34.61807129 101.61236084 34.0794043 102.23521973 33.52441406 102.87695312 C29.64703225 107.34989604 25.70849649 111.75960949 21.71142578 116.1262207 C19.86411501 118.15488795 19.86411501 118.15488795 18.28955078 120.4465332 C17.83322266 121.01758789 17.37689453 121.58864258 16.90673828 122.17700195 C16.24673828 122.17700195 15.58673828 122.17700195 14.90673828 122.17700195 C13.14445735 120.0863644 11.4857047 117.98456505 9.84423828 115.80200195 C5.79158699 110.52105284 1.587912 105.50048684 -2.91748047 100.5949707 C-6.81369834 96.26506251 -10.4263731 91.70092631 -14.09326172 87.17700195 C-15.87759241 84.98339082 -17.6703766 82.79701254 -19.46826172 80.61450195 C-20.28037109 79.62321289 -21.09248047 78.63192383 -21.92919922 77.6105957 C-24.14257144 75.12155077 -25.80854582 73.38390376 -29.17919922 72.84106445 C-33.30793223 72.77060826 -35.5054126 72.80959626 -39.09326172 75.05200195 C-41.96968663 78.10820342 -42.22045275 79.72953832 -42.24716187 83.81890869 C-42.25576233 84.79744308 -42.26436279 85.77597748 -42.27322388 86.78416443 C-42.27748383 87.86158401 -42.28174377 88.9390036 -42.28613281 90.04907227 C-42.2943103 91.18089432 -42.30248779 92.31271637 -42.31091309 93.47883606 C-42.33579742 97.23759425 -42.3522908 100.9963146 -42.36669922 104.75512695 C-42.37468473 106.67735706 -42.37468473 106.67735706 -42.38283157 108.6384201 C-42.40406761 114.02397685 -42.4231972 119.40952125 -42.43445396 124.7951088 C-42.45068577 132.50996441 -42.48384242 140.22431577 -42.54085481 147.93898129 C-42.58425547 154.01944513 -42.60020222 160.09971149 -42.60658646 166.18032074 C-42.61331183 168.76552672 -42.62856694 171.35072501 -42.65247726 173.93582916 C-42.68402825 177.55339525 -42.68417982 181.16968646 -42.67675781 184.78735352 C-42.69316315 185.85667618 -42.70956848 186.92599884 -42.72647095 188.02772522 C-42.67966091 194.37811592 -42.67966091 194.37811592 -39.77163696 199.85369873 C-37.23790302 202.46197459 -37.23790302 202.46197459 -33.65576172 202.73950195 C-29.84192454 202.13731714 -27.3260645 201.28208284 -24.09326172 199.17700195 C-21.49244262 195.52843003 -21.78677242 191.49989441 -21.77441406 187.19555664 C-21.76436844 186.39517975 -21.75432281 185.59480286 -21.74397278 184.77017212 C-21.71312973 182.12974757 -21.69610258 179.48942448 -21.67919922 176.84887695 C-21.66048847 175.01612474 -21.64091512 173.18338115 -21.62051392 171.35064697 C-21.56917689 166.53056927 -21.52955954 161.71046364 -21.49237061 156.89025879 C-21.45234084 151.97014446 -21.4012438 147.05014649 -21.35107422 142.13012695 C-21.25429632 132.47916701 -21.16989745 122.82814139 -21.09326172 113.17700195 C-20.43326172 113.17700195 -19.77326172 113.17700195 -19.09326172 113.17700195 C-17.67887766 114.74986879 -16.33721771 116.38840191 -15.03076172 118.05200195 C-11.98300307 121.86535758 -8.88825831 125.57509004 -5.59326172 129.17700195 C-1.54378931 133.61010859 2.23244578 138.22233902 5.96142578 142.92700195 C8.08839768 145.38711403 9.71368549 147.02759571 13.02783203 147.44262695 C13.79224609 147.4374707 14.55666016 147.43231445 15.34423828 147.42700195 C16.10607422 147.4321582 16.86791016 147.43731445 17.65283203 147.44262695 C21.95822844 146.93523188 24.27095746 145.07306361 26.96923828 141.80200195 C30.031651 138.17979336 33.18849429 134.66065121 36.40673828 131.17700195 C43.79572611 123.36401468 43.79572611 123.36401468 50.46923828 114.95825195 C50.94361328 114.37043945 51.41798828 113.78262695 51.90673828 113.17700195 C52.56673828 113.17700195 53.22673828 113.17700195 53.90673828 113.17700195 C53.91260452 114.19320114 53.91847076 115.20940033 53.92451477 116.25639343 C53.9817388 125.8352012 54.05449879 135.41378187 54.14245319 144.99235821 C54.18717221 149.91676381 54.22642501 154.84108639 54.25317383 159.765625 C54.27919145 164.51848599 54.31958304 169.27102775 54.36992455 174.02369118 C54.38660367 175.83651571 54.39811144 177.64939548 54.40435219 179.462286 C54.41398193 182.00254116 54.4420272 184.54197768 54.47436523 187.08203125 C54.47293015 187.83081543 54.47149506 188.57959961 54.47001648 189.35107422 C54.57182448 195.00926868 55.94340145 198.21366513 59.90673828 202.17700195 C61.90489879 202.61000591 61.90489879 202.61000591 64.15673828 202.61450195 C64.90439453 202.65446289 65.65205078 202.69442383 66.42236328 202.7355957 C70.06848739 201.91579107 72.58740426 200.03565337 74.90673828 197.17700195 C75.51283168 194.15229463 75.72777348 191.9182849 75.6796875 188.8984375 C75.69031723 188.07840744 75.70094696 187.25837738 75.7118988 186.41349792 C75.73992168 183.71294551 75.72589898 181.01435163 75.71142578 178.3137207 C75.72267718 176.43754878 75.73655837 174.56139093 75.75296021 172.68525696 C75.78900869 167.75482191 75.78937041 162.82500682 75.7822876 157.89447021 C75.78137493 152.86027932 75.81422983 147.82632107 75.84423828 142.79223633 C75.89811033 132.92042661 75.91428115 123.04894242 75.90673828 113.17700195 C76.56673828 113.17700195 77.22673828 113.17700195 77.90673828 113.17700195 C79.32112234 114.74986879 80.66278229 116.38840191 81.96923828 118.05200195 C85.01699693 121.86535758 88.11174169 125.57509004 91.40673828 129.17700195 C95.45621069 133.61010859 99.23244578 138.22233902 102.96142578 142.92700195 C105.64698533 146.03319131 107.41761468 147.08260968 111.46923828 147.86450195 C116.81160026 147.70794922 119.7370044 144.4446889 123.40283203 140.8684082 C126.64263926 137.3859945 129.64680514 133.76413159 132.59423828 130.0324707 C135.86991905 125.98766894 139.3951989 122.20253119 142.93798828 118.3918457 C144.93345617 116.34021075 144.93345617 116.34021075 145.90673828 114.17700195 C146.56673828 114.17700195 147.22673828 114.17700195 147.90673828 114.17700195 C147.91220673 115.70130074 147.91220673 115.70130074 147.91778564 117.25639343 C147.95473414 126.83523714 148.01250517 136.41375932 148.09064102 145.99235821 C148.13014267 150.91679399 148.16231796 155.84105024 148.17773438 160.765625 C148.19288326 165.51855143 148.22729731 170.27098437 148.2750473 175.02369118 C148.28987936 176.83651247 148.29778034 178.64940422 148.29862213 180.462286 C148.30098809 183.00273567 148.3280364 185.54181741 148.36083984 188.08203125 C148.35580948 188.83081543 148.35077911 189.57959961 148.34559631 190.35107422 C148.41803445 193.97919458 148.82393284 196.0455033 150.77484131 199.14363098 C153.44852632 201.69375116 154.75776641 201.82471146 158.40673828 201.73950195 C162.01982806 201.57570855 163.51587876 201.44688115 166.53173828 199.36450195 C168.56448734 196.13058299 169.02893593 193.61111107 168.98420715 189.87713623 C168.97665405 188.99964218 168.96910095 188.12214813 168.96131897 187.21806335 C168.94822189 186.25801895 168.93512482 185.29797455 168.92163086 184.30883789 C168.90219692 182.20847993 168.88324268 180.10811749 168.86470032 178.00775146 C168.85353998 176.8924984 168.84237965 175.77724533 168.83088112 174.62819672 C168.76993726 167.49310622 168.76959821 160.35770331 168.75827503 153.22239304 C168.74483084 146.9479723 168.70990319 140.67506464 168.62915039 134.40112305 C168.5522525 128.33459555 168.53380191 122.27038624 168.55496788 116.20343781 C168.55251163 113.89249934 168.52879719 111.58148124 168.48334694 109.27098846 C168.14359125 91.09738741 168.14359125 91.09738741 172.51327515 86.3380127 C175.71411133 84.50610352 175.71411133 84.50610352 178.89604187 83.35040283 C186.21269101 80.49878269 190.64824759 71.75136399 193.87548828 64.9152832 C195.79669952 59.81388518 196.87681952 54.51918221 197.90673828 49.17700195 C198.56673828 49.17700195 199.22673828 49.17700195 199.90673828 49.17700195 C201.28888241 51.94129021 201.04867003 54.18635393 201.06736755 57.28121948 C201.07741318 58.58450195 201.0874588 59.88778442 201.09780884 61.2305603 C201.10383969 62.68389835 201.10972463 64.137237 201.11547852 65.59057617 C201.12501593 67.11505347 201.13490704 68.63952859 201.14512634 70.16400146 C201.17657133 75.18653785 201.19680779 80.20909095 201.21533203 85.23168945 C201.21862935 86.08820807 201.22192667 86.94472669 201.22532392 87.82720041 C201.25614555 95.92043404 201.28283402 104.01367149 201.2997427 112.10694695 C201.32155494 122.42473376 201.36329377 132.74199381 201.43318027 143.05957019 C201.48072604 150.32949871 201.50471797 157.59928686 201.51193959 164.86936581 C201.51685667 169.20069032 201.53155141 173.53142215 201.57168388 177.86257553 C201.82112681 206.13532401 199.46375957 230.55539943 179.20043945 252.02905273 C167.05428715 264.29886733 148.62066992 275.55595248 130.85912514 276.30563641 C129.71505384 276.30731225 128.57098255 276.30898809 127.39224243 276.31071472 C126.07446304 276.31497971 124.75668365 276.31924469 123.39897156 276.32363892 C121.94534299 276.32328943 120.49171444 276.32282791 119.03808594 276.32226562 C117.50192686 276.32525894 115.96576854 276.32866186 114.42961121 276.33244324 C110.26221079 276.34126969 106.09483091 276.34362078 101.92742205 276.34425902 C99.32239475 276.34497027 96.71737265 276.34710599 94.11234665 276.34975624 C85.02036966 276.35900501 75.92840732 276.36309169 66.83642578 276.36230469 C58.36756704 276.36170394 49.898772 276.37225642 41.42992938 276.38804835 C34.15334322 276.40113252 26.87677786 276.40648822 19.60018003 276.40584928 C15.25669131 276.40559456 10.91325923 276.4084314 6.56978226 276.41902733 C2.48383654 276.42872312 -1.60199857 276.42877734 -5.68794823 276.4215107 C-7.18469212 276.42046671 -8.68144296 276.42281667 -10.17817497 276.42887115 C-12.22717851 276.43662066 -14.27580286 276.43192711 -16.32479858 276.42424011 C-17.46962393 276.42478488 -18.61444927 276.42532965 -19.79396629 276.42589092 C-23.45301651 276.14986313 -26.60378445 275.29057727 -30.09326172 274.17700195 C-31.17865234 273.84442383 -32.26404297 273.5118457 -33.38232422 273.16918945 C-54.29074691 266.16707132 -71.39375105 252.00254433 -81.34326172 232.23950195 C-88.61197284 217.23262393 -90.22579683 204.50061886 -90.28613281 187.87548828 C-90.2943103 186.60381805 -90.30248779 185.33214783 -90.31091309 184.02194214 C-90.33680516 179.85099316 -90.35240088 175.68003572 -90.36669922 171.5090332 C-90.3720712 170.05942978 -90.3774487 168.60982639 -90.38283157 167.16022301 C-90.4044063 161.1231882 -90.42313694 155.08615572 -90.43445396 149.04909229 C-90.4506676 140.46432704 -90.48384474 131.88001575 -90.54085481 123.29542142 C-90.57979609 117.22022978 -90.59911458 111.14515838 -90.60437453 105.06984538 C-90.60799321 101.45925098 -90.61963685 97.84914434 -90.65247726 94.23868752 C-90.81082334 75.9498738 -90.60069489 58.83748125 -80.84326172 42.73950195 C-80.46266602 42.0868335 -80.08207031 41.43416504 -79.68994141 40.76171875 C-76.17451861 34.92839516 -71.92988172 29.96620411 -67.09326172 25.17700195 C-66.22701172 24.26950195 -65.36076172 23.36200195 -64.46826172 22.42700195 C-63.68451172 21.68450195 -62.90076172 20.94200195 -62.09326172 20.17700195 C-61.64337891 19.73227539 -61.19349609 19.28754883 -60.72998047 18.8293457 C-43.52509998 2.81984153 -22.53464012 0.04273159 0 0 Z " fill="#33AFED" transform="translate(265.09326171875,140.822998046875)"/>
<path d="M0 0 C1.04220703 -0.0609082 1.04220703 -0.0609082 2.10546875 -0.12304688 C6.32612076 -0.15086662 7.80326732 0.40336689 11.06640625 3.28515625 C15.16585127 8.75777686 18.52511051 14.78932053 21.95675659 20.69515991 C24.04241182 24.28326886 26.15188923 27.85735664 28.2578125 31.43359375 C28.67407394 32.14189835 29.09033539 32.85020294 29.51921082 33.57997131 C33.13201741 39.72103542 36.81603099 45.81432479 40.5625 51.875 C41.07498291 52.7098291 41.58746582 53.5446582 42.11547852 54.40478516 C44.57747261 58.37246502 47.09737643 62.11590624 50.125 65.6875 C50.43501953 65.15721191 50.74503906 64.62692383 51.06445312 64.08056641 C77.42976455 19.0542176 77.42976455 19.0542176 88.125 3.6875 C88.54265625 3.08550781 88.9603125 2.48351562 89.390625 1.86328125 C92.21717456 -0.05291564 95.27104581 0.25569638 98.5625 0.3125 C99.88121094 0.30476562 101.19992187 0.29703125 102.55859375 0.2890625 C106.32056887 0.70934888 107.48087601 1.104125 110.125 3.6875 C110.62557125 5.8286438 110.62557125 5.8286438 110.62620544 8.35595703 C110.63603958 9.31495911 110.64587372 10.27396118 110.65600586 11.26202393 C110.64633789 12.31250916 110.63666992 13.36299438 110.62670898 14.4453125 C110.63481346 16.10660187 110.63481346 16.10660187 110.64308167 17.80145264 C110.65561598 21.47207139 110.63904583 25.14191302 110.62109375 28.8125 C110.62124863 31.35693401 110.62273573 33.90136827 110.62550354 36.44580078 C110.62688965 41.78234151 110.61472602 47.11860658 110.59155273 52.45507812 C110.56494242 58.62578223 110.56319556 64.79611037 110.5749411 70.96685219 C110.58571846 76.90158555 110.57943169 82.8362041 110.56538582 88.77093506 C110.5608604 91.29717614 110.56054398 93.8234283 110.56445122 96.34967041 C110.56735235 99.87657563 110.5509082 103.40286053 110.52905273 106.9296875 C110.53355438 107.98017273 110.53805603 109.03065796 110.54269409 110.11297607 C110.53278946 111.07197815 110.52288483 112.03098022 110.51268005 113.01904297 C110.51025016 113.85305634 110.50782026 114.6870697 110.50531673 115.5463562 C110.03079805 118.21784723 109.30362121 119.10231799 107.125 120.6875 C104.50423897 120.98551296 102.17562622 121.10699978 99.5625 121.0625 C98.87736328 121.07410156 98.19222656 121.08570313 97.48632812 121.09765625 C95.49609375 121.0859375 95.49609375 121.0859375 92.125 120.6875 C89.69484561 117.04226841 89.81866562 114.31159499 89.80615234 110.0949707 C89.79610672 109.32400055 89.7860611 108.5530304 89.77571106 107.75869751 C89.74481895 105.21023301 89.72782733 102.66187385 89.7109375 100.11328125 C89.69223068 98.34636017 89.67265764 96.57944806 89.6522522 94.81254578 C89.60087354 90.16178678 89.56127855 85.5109988 89.52410889 80.86010742 C89.48410515 76.1143473 89.43299627 71.36870833 89.3828125 66.62304688 C89.28598534 57.31128296 89.20160231 47.99945072 89.125 38.6875 C88.49303711 39.76459229 87.86107422 40.84168457 87.20996094 41.95141602 C81.97393714 50.86851039 76.70615355 59.76437273 71.375 68.625 C70.75496094 69.65689453 70.13492188 70.68878906 69.49609375 71.75195312 C68.28333861 73.770233 67.06920384 75.78768469 65.85351562 77.80419922 C64.70701045 79.71666054 63.57016164 81.6349461 62.44335938 83.55908203 C61.92064453 84.44837402 61.39792969 85.33766602 60.859375 86.25390625 C60.40272461 87.03838135 59.94607422 87.82285645 59.47558594 88.63110352 C57.50314395 91.63433541 56.1973973 93.4400237 52.63671875 94.26171875 C51.70472656 94.29910156 50.77273438 94.33648437 49.8125 94.375 C48.88824219 94.44074219 47.96398437 94.50648438 47.01171875 94.57421875 C39.53897154 92.27880114 35.22871564 81.14609154 31.4375 74.8125 C30.20859056 72.77458445 28.97942053 70.73682602 27.75 68.69921875 C26.83927734 67.18593994 26.83927734 67.18593994 25.91015625 65.64208984 C24.24430742 62.88496423 22.56420061 60.13739681 20.875 57.39453125 C20.37701904 56.5854834 19.87903809 55.77643555 19.3659668 54.94287109 C18.44193903 53.4435172 17.51641985 51.94508097 16.58911133 50.44775391 C16.1742749 49.77276855 15.75943848 49.0977832 15.33203125 48.40234375 C14.9760083 47.82605225 14.61998535 47.24976074 14.25317383 46.65600586 C12.76278482 44.05548508 11.45846933 41.37122036 10.125 38.6875 C10.11913376 39.67055618 10.11326752 40.65361237 10.10722351 41.66645813 C10.05005831 50.92213988 9.97732947 60.17758527 9.88928509 69.43302631 C9.84452064 74.19158047 9.80527806 78.9500478 9.77856445 83.70874023 C9.75259188 88.29950296 9.7122328 92.88993266 9.66181374 97.48048973 C9.64510397 99.23356172 9.63361535 100.98669137 9.62738609 102.73983192 C9.61778941 105.19190164 9.5897848 107.64311142 9.55737305 110.0949707 C9.55880814 110.82289322 9.56024323 111.55081573 9.5617218 112.30079651 C9.50774388 115.18022617 9.44750944 117.2081434 7.81477356 119.63493347 C4.9648837 121.41014096 1.87563955 121.15905432 -1.375 121.125 C-2.05175781 121.14498047 -2.72851562 121.16496094 -3.42578125 121.18554688 C-5.40625 121.18359375 -5.40625 121.18359375 -8.875 120.6875 C-11.61595715 117.87478593 -12.25116043 115.85487822 -12.26268005 111.98144531 C-12.27258469 111.03934204 -12.28248932 110.09723877 -12.29269409 109.12658691 C-12.28819244 108.09996948 -12.2836908 107.07335205 -12.27905273 106.015625 C-12.28591599 104.92906616 -12.29277924 103.84250732 -12.29985046 102.72302246 C-12.31816735 99.12771578 -12.31427418 95.53284337 -12.30859375 91.9375 C-12.31315287 89.44173032 -12.31845763 86.9459619 -12.32447815 84.45019531 C-12.33341863 79.21805863 -12.33120828 73.98603499 -12.32104492 68.75390625 C-12.30955941 62.70754683 -12.32364686 56.66163075 -12.3504414 50.61532974 C-12.37526615 44.79538956 -12.37777735 38.97562203 -12.37132454 33.15563965 C-12.3711709 30.68045311 -12.37725006 28.2052582 -12.38961601 25.73010254 C-12.40445537 22.27285546 -12.39390022 18.81659085 -12.37670898 15.359375 C-12.38637695 14.33275757 -12.39604492 13.30614014 -12.40600586 12.24841309 C-12.33407017 5.35702578 -12.33407017 5.35702578 -10.07362366 2.06030273 C-6.82586806 0.03243055 -3.71556167 -0.01022632 0 0 Z " fill="#389BE2" transform="translate(531.875,178.3125)"/>
<path d="M0 0 C1.94712891 -0.03287109 1.94712891 -0.03287109 3.93359375 -0.06640625 C8.54060137 0.73200949 9.69497165 1.90474519 12.5625 5.5625 C14.4983796 8.45286812 16.25785264 11.42721085 18 14.4375 C19.05775896 16.23226308 20.11638835 18.02651339 21.17578125 19.8203125 C21.7270166 20.7577832 22.27825195 21.69525391 22.84619141 22.66113281 C25.75055869 27.57087689 28.71825554 32.44180486 31.6875 37.3125 C32.27289551 38.27349609 32.85829102 39.23449219 33.46142578 40.22460938 C37.07333267 46.1451057 40.70585949 52.05229045 44.375 57.9375 C44.99689209 58.93668457 44.99689209 58.93668457 45.63134766 59.95605469 C47.38980056 62.91681893 47.38980056 62.91681893 49.5625 65.5625 C50.03445801 64.77415771 50.50641602 63.98581543 50.99267578 63.17358398 C56.50741678 53.96475491 62.03137537 44.76149745 67.5625 35.5625 C67.92047668 34.96681213 68.27845337 34.37112427 68.64727783 33.75738525 C70.84226673 30.10549347 73.04419773 26.45786881 75.25 22.8125 C75.78834473 21.91716553 76.32668945 21.02183105 76.88134766 20.09936523 C85.91893193 5.20606807 85.91893193 5.20606807 90.5625 0.5625 C93.06987177 0.3364255 95.43096808 0.23813195 97.9375 0.25 C98.61039063 0.23388672 99.28328125 0.21777344 99.9765625 0.20117188 C104.20658074 0.19700847 106.53090602 0.59326607 109.5625 3.5625 C110.06307125 5.7036438 110.06307125 5.7036438 110.06370544 8.23095703 C110.07353958 9.18995911 110.08337372 10.14896118 110.09350586 11.13702393 C110.08383789 12.18750916 110.07416992 13.23799438 110.06420898 14.3203125 C110.07231346 15.98160187 110.07231346 15.98160187 110.08058167 17.67645264 C110.09311598 21.34707139 110.07654583 25.01691302 110.05859375 28.6875 C110.05874863 31.23193401 110.06023573 33.77636827 110.06300354 36.32080078 C110.06438965 41.65734151 110.05222602 46.99360658 110.02905273 52.33007812 C110.00244242 58.50078223 110.00069556 64.67111037 110.0124411 70.84185219 C110.02321846 76.77658555 110.01693169 82.7112041 110.00288582 88.64593506 C109.9983604 91.17217614 109.99804398 93.6984283 110.00195122 96.22467041 C110.00485235 99.75157563 109.9884082 103.27786053 109.96655273 106.8046875 C109.97105438 107.85517273 109.97555603 108.90565796 109.98019409 109.98797607 C109.97028946 110.94697815 109.96038483 111.90598022 109.95018005 112.89404297 C109.94775016 113.72805634 109.94532026 114.5620697 109.94281673 115.4213562 C109.4684557 118.09195964 108.73919997 118.97665986 106.5625 120.5625 C103.96208045 120.86119684 101.65550841 120.98195157 99.0625 120.9375 C98.38574219 120.94910156 97.70898438 120.96070313 97.01171875 120.97265625 C92.17294018 120.94402442 92.17294018 120.94402442 89.87272644 119.50639343 C87.87450371 116.54176692 88.12322419 113.51809143 88.13012695 110.06176758 C88.11483948 108.9199427 88.11483948 108.9199427 88.09924316 107.75505066 C88.06904893 105.23896995 88.05983764 102.72326953 88.05078125 100.20703125 C88.03393929 98.46252674 88.0157897 96.71803439 87.99638367 94.97355652 C87.94882495 90.38196618 87.91905367 85.79042517 87.89294434 81.19866943 C87.86316836 76.51320652 87.8166279 71.82791372 87.77148438 67.14257812 C87.68538452 57.94930763 87.61806903 48.75600218 87.5625 39.5625 C87.02297699 40.50795685 86.48345398 41.4534137 85.92758179 42.42752075 C85.20743082 43.68882986 84.48726611 44.95013112 83.76708984 46.21142578 C83.41295517 46.83209427 83.0588205 47.45276276 82.69395447 48.09223938 C75.63347718 60.45530404 68.39595346 72.72355397 60.875 84.8125 C60.46523926 85.47362793 60.05547852 86.13475586 59.63330078 86.81591797 C58.08113273 89.28945827 56.63464901 91.49035099 54.5625 93.5625 C52.171875 94.0390625 52.171875 94.0390625 49.3125 94.1875 C47.91257812 94.29964844 47.91257812 94.29964844 46.484375 94.4140625 C39.02871511 92.24115627 34.90868433 81.32105022 31.25 75 C30.10845306 73.04795473 28.96652445 71.0961326 27.82421875 69.14453125 C27.27040527 68.19529785 26.7165918 67.24606445 26.14599609 66.26806641 C23.97570454 62.55989943 21.7750924 58.87054045 19.5625 55.1875 C19.20317383 54.58703857 18.84384766 53.98657715 18.47363281 53.36791992 C16.53844035 50.14427742 14.54455249 46.96760329 12.5 43.8125 C10.5625 40.5625 10.5625 40.5625 10.5625 37.5625 C9.9025 37.5625 9.2425 37.5625 8.5625 37.5625 C8.56694122 38.57283295 8.57138245 39.58316589 8.57595825 40.62411499 C8.6164432 50.1301074 8.64645493 59.63608239 8.66612434 69.14214134 C8.6765764 74.02969318 8.69076144 78.91717561 8.71337891 83.8046875 C8.73505671 88.51846629 8.7470579 93.23217818 8.75225449 97.94600296 C8.75595937 99.74740274 8.76319374 101.54879872 8.77396011 103.35017014 C8.78840787 105.86682901 8.79048078 108.38320889 8.78955078 110.89990234 C8.80033661 112.02523125 8.80033661 112.02523125 8.81134033 113.17329407 C8.79060432 118.33439568 8.79060432 118.33439568 6.5625 120.5625 C4.03457337 120.78805081 1.65194424 120.88688591 -0.875 120.875 C-1.8969043 120.89916992 -1.8969043 120.89916992 -2.93945312 120.92382812 C-7.93442214 120.92872036 -7.93442214 120.92872036 -10.13226414 119.32878017 C-11.81004676 117.05835973 -11.81690935 115.74797124 -11.82518005 112.93873596 C-11.83508469 111.9895932 -11.84498932 111.04045044 -11.85519409 110.06254578 C-11.85069244 109.02298233 -11.8461908 107.98341888 -11.84155273 106.91235352 C-11.84841599 105.81618713 -11.85527924 104.72002075 -11.86235046 103.59063721 C-11.88069206 99.95742945 -11.87677032 96.32465049 -11.87109375 92.69140625 C-11.87565204 90.17178709 -11.88095655 87.65216918 -11.88697815 85.1325531 C-11.89592379 79.84734467 -11.8937025 74.56229331 -11.88354492 69.27709961 C-11.87206489 63.16884658 -11.88613545 57.06103268 -11.9129414 50.95283753 C-11.93776687 45.07578443 -11.94027695 39.19886788 -11.93382454 33.32176018 C-11.93367088 30.82145393 -11.93975178 28.3211394 -11.95211601 25.82086372 C-11.96695551 22.3275884 -11.95639964 18.83528543 -11.93920898 15.34204102 C-11.94887695 14.3045018 -11.95854492 13.26696259 -11.96850586 12.19798279 C-11.89652957 5.23054573 -11.89652957 5.23054573 -9.62464905 1.92417908 C-6.39673182 -0.08546327 -3.77098645 -0.00373735 0 0 Z " fill="#399CE3" transform="translate(878.4375,178.4375)"/>
<path d="M0 0 C1.01964844 -0.0103125 2.03929687 -0.020625 3.08984375 -0.03125 C7.02517853 0.67204242 8.38849832 1.48578215 11.0625 4.5 C11.82305049 8.14464745 11.72433591 11.75194378 11.67773438 15.46313477 C11.68328339 16.58056061 11.6888324 17.69798645 11.69454956 18.84927368 C11.7063715 22.54708579 11.68204439 26.24367963 11.65625 29.94140625 C11.65453967 32.50683028 11.65460379 35.07225606 11.65637207 37.63768005 C11.65471741 43.01539098 11.63657122 48.39265694 11.60449219 53.77026367 C11.56758107 59.98814463 11.55881927 66.20556539 11.5657897 72.42354161 C11.57209344 78.40583074 11.56113143 84.3879213 11.54182434 90.37019157 C11.53477949 92.91596644 11.5316716 95.46175527 11.53251648 98.00753975 C11.53072459 101.56070461 11.50939457 105.11320872 11.48242188 108.66625977 C11.48535248 109.72452469 11.48828308 110.78278961 11.49130249 111.87312317 C11.4799527 112.83909424 11.46860291 113.80506531 11.45690918 114.80030823 C11.45131611 116.06044157 11.45131611 116.06044157 11.44561005 117.34603214 C10.97022979 120.01877281 10.23468495 120.9066886 8.0625 122.5 C4.8125 122.8984375 4.8125 122.8984375 1.0625 122.875 C-0.175 122.88273437 -1.4125 122.89046875 -2.6875 122.8984375 C-5.9375 122.5 -5.9375 122.5 -7.83203125 121.20703125 C-9.58594429 118.49869203 -9.63964319 115.65728221 -9.9375 112.5 C-10.618125 113.5828125 -10.618125 113.5828125 -11.3125 114.6875 C-17.23485285 121.03287805 -26.25696073 124.0896775 -34.76953125 124.8359375 C-47.44543801 124.96033305 -56.6379342 122.54967344 -65.9375 113.5 C-75.7653755 101.52706481 -77.97424733 88.82199695 -76.69921875 73.66796875 C-75.03734359 61.93412294 -68.94005013 53.01517228 -59.9375 45.5 C-51.68049627 39.73515992 -39.74497907 38.29081108 -29.89453125 39.81640625 C-22.01765774 41.50757252 -16.55586074 44.78356745 -10.9375 50.5 C-10.93385437 49.93259094 -10.93020874 49.36518188 -10.92645264 48.78057861 C-10.88464554 42.87543768 -10.81531314 36.9710753 -10.72998047 31.06640625 C-10.7017529 28.86270941 -10.6805473 26.658911 -10.66650391 24.45507812 C-10.64509953 21.28723068 -10.59846102 18.12060692 -10.546875 14.953125 C-10.54564636 13.96757629 -10.54441772 12.98202759 -10.54315186 11.96661377 C-10.39709308 5.14720547 -10.39709308 5.14720547 -8.0769043 1.87988281 C-5.25666554 0.06087226 -3.3407869 -0.03370277 0 0 Z " fill="#3B9CE2" transform="translate(831.9375,176.5)"/>
<path d="M0 0 C0.97646484 -0.00708984 1.95292969 -0.01417969 2.95898438 -0.02148438 C14.19111665 0.07618634 23.23260729 3.52633002 31.41796875 11.32421875 C40.07094088 20.71518424 42.53866461 30.74715769 42.80078125 43.30859375 C42.33153514 46.05847687 41.66099428 46.76769979 39.4375 48.4375 C36.76094055 48.79826355 36.76094055 48.79826355 33.49731445 48.77807617 C32.27627518 48.77784958 31.0552359 48.77762299 29.79719543 48.77738953 C27.81897041 48.75416374 27.81897041 48.75416374 25.80078125 48.73046875 C24.43743862 48.72487243 23.07408996 48.7206025 21.71073914 48.71760559 C18.12506408 48.70615949 14.53975446 48.67669486 10.95422363 48.64349365 C7.2944025 48.61278739 3.63452223 48.5990991 -0.02539062 48.58398438 C-7.20459356 48.55182449 -14.38349554 48.50063153 -21.5625 48.4375 C-20.94835411 49.86905878 -20.3288044 51.29829997 -19.70703125 52.7265625 C-19.36260986 53.52271973 -19.01818848 54.31887695 -18.66333008 55.13916016 C-16.14083067 60.40569586 -13.05886479 63.59324676 -7.53588867 65.82666016 C-4.15659956 66.87268037 -0.89243884 66.96726449 2.625 66.9375 C3.36242432 66.93540527 4.09984863 66.93331055 4.85961914 66.93115234 C12.29562639 66.7197325 20.03849196 64.83650804 25.4375 59.4375 C29.2916838 59.70330578 31.64466642 61.9386489 34.4375 64.4375 C36.4375 67.4375 36.4375 67.4375 37 69.75 C36.23751799 73.39296959 34.64656737 74.67848349 31.77734375 76.94921875 C18.74838012 85.23642266 2.82907613 86.61383824 -12.140625 83.75390625 C-22.94337435 80.03467397 -32.97683242 72.72931124 -38.375 62.5625 C-43.96159476 50.36020092 -44.22777519 37.04544801 -39.5625 24.4375 C-34.3195335 13.41382685 -25.7017809 5.54516757 -14.31225586 1.21606445 C-9.54786478 -0.13292278 -4.91941199 -0.10106148 0 0 Z " fill="#3D9EE3" transform="translate(702.5625,216.5625)"/>
<path d="M0 0 C0 0.66 0 1.32 0 2 C1.485 2.12375 1.485 2.12375 3 2.25 C11.73748849 3.55095402 19.30348981 9.07755858 24.54296875 16.0546875 C30.62665581 25.51027149 32.12777307 35.81784326 31 47 C29 49 29 49 26.44369507 49.24050903 C24.82486923 49.2338472 24.82486923 49.2338472 23.17333984 49.22705078 C21.34166763 49.22682419 21.34166763 49.22682419 19.47299194 49.22659302 C18.13563882 49.21637903 16.79828735 49.20594702 15.4609375 49.1953125 C14.09616299 49.1915828 12.73138581 49.18873563 11.36660767 49.18673706 C7.77279277 49.17909714 4.17913927 49.15944572 0.58538818 49.1373291 C-3.08107317 49.11687832 -6.74756057 49.107737 -10.4140625 49.09765625 C-17.60944862 49.07620003 -24.8047017 49.04205992 -32 49 C-31.53941988 50.44277429 -31.07355264 51.88386145 -30.60546875 53.32421875 C-30.34660889 54.12690186 -30.08774902 54.92958496 -29.82104492 55.7565918 C-27.7482729 61.42019634 -24.20494525 63.72264328 -19 66.203125 C-11.88692716 69.03723996 -3.73822275 69.37590305 3.44921875 66.73046875 C9.12573241 63.94220272 9.12573241 63.94220272 14 60 C18.6893051 60.52318693 22.06657552 63.47356517 25 67 C25.9375 70.5 25.9375 70.5 25 74 C20.65667124 78.7543343 15.02770385 81.12063986 9 83 C8.15824219 83.34675781 7.31648438 83.69351563 6.44921875 84.05078125 C-4.86764685 87.16516216 -19.62182906 86.62748379 -30.27734375 81.6015625 C-40.64102257 75.50528084 -47.74530734 67.78708001 -51.9375 56.375 C-54.81845554 45.17327225 -54.29145606 31.84166062 -48.7109375 21.64453125 C-42.31374155 11.43296446 -34.27571234 4.05373384 -22.4375 1.1875 C-14.89874868 -0.2663437 -7.64536176 -0.28911032 0 0 Z " fill="#3B9DE2" transform="translate(1213,216)"/>
<path d="M0 0 C0.85078125 -0.01224609 1.7015625 -0.02449219 2.578125 -0.03710938 C12.86295844 -0.0607708 22.17006829 2.33923416 29.8125 9.5 C37.46612195 17.65921429 37.16289498 27.66973579 37.203125 38.26171875 C37.20882507 39.42250443 37.21452515 40.5832901 37.22039795 41.7792511 C37.22982152 44.22595311 37.23637139 46.67266766 37.24023438 49.11938477 C37.24999253 52.87212857 37.28106241 56.62433649 37.3125 60.37695312 C37.31902538 62.75520508 37.32427767 65.13346095 37.328125 67.51171875 C37.3404718 68.63672287 37.3528186 69.76172699 37.36553955 70.92082214 C37.36253845 71.96232925 37.35953735 73.00383636 37.35644531 74.0769043 C37.36191376 75.45207466 37.36191376 75.45207466 37.36749268 76.85502625 C37 79.1875 37 79.1875 35.70111084 80.98860168 C32.86161429 82.9898044 29.64762189 82.49644702 26.3125 82.375 C25.61060547 82.36146484 24.90871094 82.34792969 24.18554688 82.33398438 C22.45670171 82.29870182 20.72825235 82.24489583 19 82.1875 C17.39274365 78.97298731 17.94251815 75.75137464 18 72.1875 C17.34 72.1875 16.68 72.1875 16 72.1875 C15.814375 72.744375 15.62875 73.30125 15.4375 73.875 C11.76178302 79.78810993 5.66020222 82.12276145 -0.8359375 83.6796875 C-11.83619368 85.44516071 -20.96658316 85.05291021 -30.1796875 78.6796875 C-35.97443752 74.11605653 -39.3432842 69.04870662 -40.33984375 61.671875 C-40.60549924 54.74357982 -39.01457778 49.28131588 -35.25 43.5 C-26.13120776 34.12790797 -15.4769293 32.32725426 -2.83203125 32.09765625 C-1.32555169 32.08248049 0.18096676 32.07077944 1.6875 32.0625 C2.40035156 32.05774658 3.11320312 32.05299316 3.84765625 32.0480957 C8.3289139 32.06215169 12.5779058 32.45724591 17 33.1875 C15.83925267 26.17719704 14.48077728 21.71106353 8.5 17.375 C3.31431496 15.61557115 -1.57771281 15.90134411 -7 16.1875 C-8.794375 16.2803125 -8.794375 16.2803125 -10.625 16.375 C-14.70423548 17.35703817 -17.95132952 19.13379599 -21.5703125 21.2265625 C-24.53985974 22.40101366 -26.00102465 22.1955168 -29 21.1875 C-31.59986406 18.65985439 -32.85311317 16.57919822 -34.125 13.1875 C-34 10.1875 -34 10.1875 -31.6875 7.5625 C-22.12656823 0.68572773 -11.3654274 0.00861017 0 0 Z " fill="#3B9DE3" transform="translate(1045,216.8125)"/>
<path d="M0 0 C0.93328125 -0.01160156 1.8665625 -0.02320313 2.828125 -0.03515625 C10.73858978 -0.00201184 17.40647002 1.82697109 24.4375 5.4375 C25.39462891 5.91896484 25.39462891 5.91896484 26.37109375 6.41015625 C28 7.375 28 7.375 30 9.375 C29.88271462 15.47383958 28.02942919 18.13893342 24 22.375 C19.97982689 21.72969546 16.60572196 20.42120198 12.875 18.8125 C5.95796454 16.09901444 -0.50643843 14.86626058 -7.6875 17.27734375 C-10.12419114 18.27546823 -10.12419114 18.27546823 -12 20.375 C-12.5838196 23.2899255 -12.5838196 23.2899255 -12 26.375 C-8.55929692 29.70254009 -5.4767071 31.10272311 -0.88671875 32.3046875 C0.27923828 32.62566406 1.44519531 32.94664062 2.64648438 33.27734375 C5.07761421 33.92236381 7.50990157 34.56303774 9.94335938 35.19921875 C17.07480841 37.17166361 22.60903263 39.22316441 28 44.375 C28.5163501 44.84558838 29.0327002 45.31617676 29.56469727 45.80102539 C32.82132227 49.15385454 33.66484076 51.99585763 33.796875 56.49121094 C33.78140625 57.21598633 33.7659375 57.94076172 33.75 58.6875 C33.7396875 59.4393457 33.729375 60.19119141 33.71875 60.96582031 C33.44054822 66.706216 32.11670655 70.42328515 28.0546875 74.6484375 C19.27070281 82.02965658 10.17646515 84.94507225 -1.25 84.8125 C-2.62816895 84.80114014 -2.62816895 84.80114014 -4.03417969 84.78955078 C-14.71236876 84.53244851 -26.1602557 82.23349967 -34 74.375 C-35.375 70.875 -35.375 70.875 -35 67.375 C-32.72966334 63.65990365 -31.14809759 61.81469695 -27.0625 60.25 C-23.01976268 60.41500969 -21.2086848 61.98555387 -18 64.375 C-12.32999442 67.06825265 -6.65566553 67.5146828 -0.4375 67.5 C0.65691406 67.50257813 1.75132813 67.50515625 2.87890625 67.5078125 C5.70608913 67.38750685 8.2510726 67.01999972 11 66.375 C12.1577506 62.90174819 12.06866652 60.01432552 12 56.375 C6.24805457 53.00126278 0.62133975 50.89244558 -5.875 49.4375 C-14.23341078 47.5184018 -23.13443682 44.94898171 -29.125 38.4375 C-32.77791593 32.47107065 -33.91846681 26.26946518 -33 19.375 C-31.04653093 12.42641876 -25.94433951 7.24353841 -20 3.375 C-13.41578155 0.34823495 -7.16370277 -0.08905155 0 0 Z " fill="#3C9EE3" transform="translate(1289,216.625)"/>
<path d="M0 0 C1.13566406 0.01289063 2.27132813 0.02578125 3.44140625 0.0390625 C6.4375 0.375 6.4375 0.375 9.4375 2.375 C9.77807617 4.98876953 9.77807617 4.98876953 9.73046875 8.2578125 C9.7159668 10.00771484 9.7159668 10.00771484 9.70117188 11.79296875 C9.67603516 13.01628906 9.65089844 14.23960937 9.625 15.5 C9.60469727 17.34658203 9.60469727 17.34658203 9.58398438 19.23046875 C9.54853543 22.27907843 9.49912079 25.326825 9.4375 28.375 C10.4747522 28.36714478 10.4747522 28.36714478 11.53295898 28.35913086 C14.64696352 28.338425 17.76095361 28.32536037 20.875 28.3125 C21.96361328 28.30412109 23.05222656 28.29574219 24.17382812 28.28710938 C25.20830078 28.28388672 26.24277344 28.28066406 27.30859375 28.27734375 C28.26693115 28.27210693 29.22526855 28.26687012 30.21264648 28.26147461 C32.4375 28.375 32.4375 28.375 33.4375 29.375 C33.56264928 31.35119447 33.6132276 33.33238173 33.625 35.3125 C33.63917969 36.39402344 33.65335938 37.47554687 33.66796875 38.58984375 C33.4375 41.375 33.4375 41.375 31.4375 43.375 C29.19091797 43.60205078 29.19091797 43.60205078 26.4296875 43.5703125 C25.44355469 43.56386719 24.45742187 43.55742187 23.44140625 43.55078125 C22.40886719 43.53402344 21.37632813 43.51726562 20.3125 43.5 C19.27222656 43.49097656 18.23195313 43.48195312 17.16015625 43.47265625 C14.58570908 43.44903747 12.01171788 43.41610149 9.4375 43.375 C9.50650606 49.24699663 9.59453644 55.11828999 9.69995117 60.98974609 C9.73313713 62.98576029 9.76118868 64.98186689 9.78393555 66.97802734 C9.81759793 69.8529384 9.86991977 72.72700743 9.92578125 75.6015625 C9.93217117 76.48929352 9.9385611 77.37702454 9.94514465 78.29165649 C10.06463766 83.36507852 10.59089735 86.99406761 13.4375 91.375 C15.75054604 92.53152302 17.11707918 92.50874293 19.6875 92.5 C20.89212891 92.49613281 20.89212891 92.49613281 22.12109375 92.4921875 C24.62581592 92.43176229 24.62581592 92.43176229 27.75 91.625 C30.4375 91.375 30.4375 91.375 32.75 92.8125 C35.2008415 96.53414821 35.4375 98.89268031 35.4375 103.375 C32.52912617 107.62570022 28.61572818 108.95180138 23.703125 109.90625 C15.93785585 111.02088193 7.14476867 111.99505326 0.18359375 107.7734375 C-5.19122367 103.46877389 -8.82675864 99.09548163 -10.5625 92.375 C-10.83112511 88.60482545 -10.79528124 84.8483675 -10.7578125 81.0703125 C-10.7549826 79.99119598 -10.75215271 78.91207947 -10.74923706 77.80026245 C-10.7380766 74.36672701 -10.7129793 70.93345609 -10.6875 67.5 C-10.67746487 65.16667044 -10.66833995 62.83333678 -10.66015625 60.5 C-10.63815079 54.791577 -10.60471427 49.08330741 -10.5625 43.375 C-11.91794922 43.42720703 -11.91794922 43.42720703 -13.30078125 43.48046875 C-14.48027344 43.50753906 -15.65976563 43.53460938 -16.875 43.5625 C-18.04675781 43.59730469 -19.21851563 43.63210937 -20.42578125 43.66796875 C-23.5625 43.375 -23.5625 43.375 -25.45776367 42.01391602 C-27.00029152 39.72552056 -26.92738023 38.04835988 -26.875 35.3125 C-26.87113281 34.43464844 -26.86726563 33.55679688 -26.86328125 32.65234375 C-26.5625 30.375 -26.5625 30.375 -24.5625 28.375 C-21.3046875 28.1796875 -21.3046875 28.1796875 -17.4375 28.25 C-15.51550781 28.27707031 -15.51550781 28.27707031 -13.5546875 28.3046875 C-12.07355469 28.33949219 -12.07355469 28.33949219 -10.5625 28.375 C-10.58344727 27.66891602 -10.60439453 26.96283203 -10.62597656 26.23535156 C-10.70919298 23.03204624 -10.76117785 19.82896837 -10.8125 16.625 C-10.84601563 15.51382813 -10.87953125 14.40265625 -10.9140625 13.2578125 C-10.92695312 12.18789062 -10.93984375 11.11796875 -10.953125 10.015625 C-10.97407227 9.03110352 -10.99501953 8.04658203 -11.01660156 7.03222656 C-9.93923568 0.72789848 -5.71920483 -0.14314278 0 0 Z " fill="#399CE2" transform="translate(1117.5625,190.625)"/>
<path d="M0 0 C3.55975806 1.47130083 6.16908161 3.41524842 9 6 C9.94875 6.804375 10.8975 7.60875 11.875 8.4375 C17.32948156 15.01496306 17.60526267 20.92765223 17.40625 29.3359375 C16.4894172 37.60506414 12.1667215 42.39500358 5.96484375 47.58984375 C0.17633947 51.7442176 -5.02735261 51.54740218 -12 51 C-18.12104681 49.95746083 -21.71608367 46.96413161 -25.5234375 42.1484375 C-30.78837653 34.48781193 -31.17699 26.13614368 -30 17 C-24.72224988 2.72013 -14.252017 -1.5337196 0 0 Z " fill="#F9FBFD" transform="translate(806,233)"/>
<path d="M0 0 C1.73443359 0.00580078 1.73443359 0.00580078 3.50390625 0.01171875 C6.4375 0.3125 6.4375 0.3125 8.4375 2.3125 C8.74425232 5.21217757 8.94923371 8.03033178 9.0625 10.9375 C9.12050781 12.14019531 9.12050781 12.14019531 9.1796875 13.3671875 C9.27403931 15.34857556 9.35686215 17.33050645 9.4375 19.3125 C10.70207031 19.34988281 11.96664062 19.38726562 13.26953125 19.42578125 C14.9297173 19.49143833 16.58987222 19.55788576 18.25 19.625 C19.08337891 19.64755859 19.91675781 19.67011719 20.77539062 19.69335938 C21.97905273 19.7465332 21.97905273 19.7465332 23.20703125 19.80078125 C24.31461792 19.84005737 24.31461792 19.84005737 25.44458008 19.88012695 C27.95318092 20.42437932 28.87298785 21.30890629 30.4375 23.3125 C30.8359375 25.65234375 30.8359375 25.65234375 30.8125 28.25 C30.82410156 29.53197266 30.82410156 29.53197266 30.8359375 30.83984375 C30.32084615 34.03644009 29.97891283 35.23836382 27.4375 37.3125 C24.19681559 37.80851516 21.01841289 37.6868288 17.75 37.5625 C16.41098633 37.53542969 16.41098633 37.53542969 15.04492188 37.5078125 C12.84136496 37.46067759 10.63997399 37.39490657 8.4375 37.3125 C8.48970703 39.10107422 8.48970703 39.10107422 8.54296875 40.92578125 C8.57110753 42.49217342 8.5984076 44.05858081 8.625 45.625 C8.65013672 46.41068359 8.67527344 47.19636719 8.70117188 48.00585938 C8.71083984 48.76318359 8.72050781 49.52050781 8.73046875 50.30078125 C8.7461792 50.99727783 8.76188965 51.69377441 8.77807617 52.41137695 C8.32848553 54.92102735 7.44503792 55.78385389 5.4375 57.3125 C2.37109375 57.7109375 2.37109375 57.7109375 -1.125 57.6875 C-2.28128906 57.69523437 -3.43757813 57.70296875 -4.62890625 57.7109375 C-5.59699219 57.57945312 -6.56507813 57.44796875 -7.5625 57.3125 C-10.04294315 53.59183528 -10.00631173 50.44709526 -10.1875 46.125 C-10.22617187 45.37541016 -10.26484375 44.62582031 -10.3046875 43.85351562 C-10.39878216 42.00690801 -10.48172319 40.1597381 -10.5625 38.3125 C-11.83867187 38.26351562 -13.11484375 38.21453125 -14.4296875 38.1640625 C-16.09898072 38.08903809 -17.76825046 38.01349012 -19.4375 37.9375 C-20.27925781 37.9065625 -21.12101562 37.875625 -21.98828125 37.84375 C-22.79394531 37.80507812 -23.59960938 37.76640625 -24.4296875 37.7265625 C-25.17331543 37.6951416 -25.91694336 37.6637207 -26.68310547 37.63134766 C-28.5625 37.3125 -28.5625 37.3125 -30.5625 35.3125 C-30.828125 32.59765625 -30.828125 32.59765625 -30.8125 29.375 C-30.81765625 28.31410156 -30.8228125 27.25320312 -30.828125 26.16015625 C-30.5625 23.3125 -30.5625 23.3125 -28.5625 20.3125 C-26.59130859 19.97192383 -26.59130859 19.97192383 -24.2109375 20.01953125 C-22.93476563 20.0340332 -22.93476563 20.0340332 -21.6328125 20.04882812 C-20.74335938 20.07396484 -19.85390625 20.09910156 -18.9375 20.125 C-17.59171875 20.14530273 -17.59171875 20.14530273 -16.21875 20.16601562 C-13.99940211 20.20143075 -11.78124812 20.25081539 -9.5625 20.3125 C-9.59730469 19.12011719 -9.63210938 17.92773438 -9.66796875 16.69921875 C-9.69610753 15.13282658 -9.7234076 13.56641919 -9.75 12 C-9.77513672 11.21431641 -9.80027344 10.42863281 -9.82617188 9.61914062 C-9.83583984 8.86181641 -9.84550781 8.10449219 -9.85546875 7.32421875 C-9.8711792 6.62772217 -9.88688965 5.93122559 -9.90307617 5.21362305 C-8.92950305 -0.22093891 -4.69141541 -0.06814346 0 0 Z " fill="#39B1EE" transform="translate(418.5625,161.6875)"/>
<path d="M0 0 C3.75375 -0.103125 7.5075 -0.20625 11.375 -0.3125 C12.53692871 -0.35802002 13.69885742 -0.40354004 14.89599609 -0.45043945 C22.89223356 -0.55559954 29.56172141 1.02078573 35.64990234 6.47924805 C40.90866736 12.40272857 41.45512275 18.13669062 41.30859375 25.7734375 C40.71253767 32.00561878 38.29606481 36.03747309 33.8125 40.3125 C22.77283782 48.09455695 13.943491 46 0 46 C0 30.82 0 15.64 0 0 Z " fill="#FAFAFB" transform="translate(520,341)"/>
<path d="M0 0 C1.98 0 3.96 0 6 0 C6 15.51 6 31.02 6 47 C4.02 47 2.04 47 0 47 C-0.33 46.01 -0.66 45.02 -1 44 C-1.763125 44.66 -2.52625 45.32 -3.3125 46 C-7.86407366 48.99843004 -12.76162647 48.98837236 -18 48 C-22.44200039 45.79908118 -25.02508435 42.58355635 -26.9375 38.0625 C-28.52390175 32.87959738 -28.49350939 28.65470794 -26.9375 23.4375 C-24.55954903 19.21855473 -22.36316328 16.23286656 -18 14 C-10.58991029 12.59111502 -7.42111315 13.7192579 -1 18 C-0.67 12.06 -0.34 6.12 0 0 Z " fill="#767980" transform="translate(843,340)"/>
<path d="M0 0 C1.98 0 3.96 0 6 0 C6.33 5.94 6.66 11.88 7 18 C8.65 16.68 10.3 15.36 12 14 C15.11328125 13.609375 15.11328125 13.609375 18.3125 13.75 C19.38113281 13.78609375 20.44976563 13.8221875 21.55078125 13.859375 C22.76314453 13.92898438 22.76314453 13.92898438 24 14 C24 14.66 24 15.32 24 16 C24.86625 16.0928125 24.86625 16.0928125 25.75 16.1875 C29.43911231 17.51967945 31.28909007 20.57818014 33 24 C34.20203859 37.23959646 34.20203859 37.23959646 30.875 42.1875 C27.08325413 46.38172169 23.11511817 48.13601715 17.5 48.4375 C12.89881488 48.30514781 10.51477225 46.88391569 7 44 C6.67 44.99 6.34 45.98 6 47 C4.02 47 2.04 47 0 47 C0 31.49 0 15.98 0 0 Z " fill="#71747C" transform="translate(676,340)"/>
<path d="M0 0 C3.795 -0.103125 7.59 -0.20625 11.5 -0.3125 C12.68013672 -0.35802002 13.86027344 -0.40354004 15.07617188 -0.45043945 C21.93670463 -0.54019153 26.82130142 0.26881218 32 5 C34.84234025 9.26351037 34.62452246 12.99601378 34 18 C31.63475039 22.9124415 28.76634838 25.43267144 24 28 C20.84966249 28.46359718 17.80003658 28.3806314 14.625 28.25 C11.77875 28.1675 8.9325 28.085 6 28 C6 33.94 6 39.88 6 46 C4.02 46 2.04 46 0 46 C0 30.82 0 15.64 0 0 Z " fill="#71747C" transform="translate(878,341)"/>
<path d="M0 0 C4.38277272 1.90362855 7.96925286 4.02440131 10.21875 8.3359375 C11.97856764 14.33691565 12.00286099 20.7017769 9.5 26.4375 C4.69977432 31.35773132 0.51810691 34.26330743 -6.5 34.75 C-11.90511021 34.51695631 -14.67147941 32.56279484 -18.44140625 28.82421875 C-22.74804561 23.78361579 -22.41834399 19.81793836 -22.3125 13.39453125 C-21.78943532 7.7127412 -19.47601572 5.40221493 -15.5 1.625 C-10.28848055 -0.79463403 -5.64212477 -0.96082278 0 0 Z " fill="#757880" transform="translate(738,354)"/>
<path d="M0 0 C3.75375 -0.103125 7.5075 -0.20625 11.375 -0.3125 C12.53692871 -0.35802002 13.69885742 -0.40354004 14.89599609 -0.45043945 C22.89223356 -0.55559954 29.56172141 1.02078573 35.64990234 6.47924805 C40.90866736 12.40272857 41.45512275 18.13669062 41.30859375 25.7734375 C40.71253767 32.00561878 38.29606481 36.03747309 33.8125 40.3125 C22.77283782 48.09455695 13.943491 46 0 46 C0 30.82 0 15.64 0 0 Z M6 5 C6 16.55 6 28.1 6 40 C19.86670809 40.95517097 19.86670809 40.95517097 30.1875 35.25 C34.5697493 29.80996638 35.6428556 24.74998383 35 18 C33.18097032 12.84608257 30.46890396 10.09385659 26 7 C19.12604771 4.05402045 14.08518944 5 6 5 Z " fill="#71747B" transform="translate(520,341)"/>
<path d="M0 0 C1.66289063 0.02030273 1.66289063 0.02030273 3.359375 0.04101562 C6.07343232 0.07611119 8.78645193 0.1252773 11.5 0.1875 C11.54253887 1.7640851 11.57265234 3.34100808 11.59765625 4.91796875 C11.61578369 5.79606201 11.63391113 6.67415527 11.65258789 7.57885742 C11.36324577 12.52545036 9.4276165 16.38958391 5.81640625 19.7578125 C-0.80721491 24.7433338 -7.37924675 24.7721092 -15.5 24.1875 C-19.33086296 23.33694127 -21.83378416 21.96117001 -24.4375 18.9375 C-25.82350666 15.35018865 -26.03635142 13.0090039 -25.5 9.1875 C-22.65068613 4.55736496 -20.16603393 2.61544431 -14.9609375 0.77197266 C-10.03591318 -0.39772062 -5.03087644 -0.117347 0 0 Z " fill="#F6F9FD" transform="translate(1050.5,261.8125)"/>
<path d="M0 0 C4.38754438 2.15388542 7.52067915 4.77597188 10 9 C10.495 13.95 10.495 13.95 11 19 C2.42 19 -6.16 19 -15 19 C-12.5797509 24.63106761 -12.5797509 24.63106761 -10 27 C-4.11272745 27.65414139 1.51994831 27.36975208 7 25 C7.66 26.32 8.32 27.64 9 29 C3.54047625 33.49607838 -1.09311345 34.82522126 -8.16015625 34.46875 C-12.52326793 33.7485665 -15.20978196 32.45677013 -18 29 C-21.27594796 23.53373801 -22.73140183 18.35598851 -21.60546875 12.03515625 C-20.26284687 7.52221431 -17.83183947 4.77097317 -14.4375 1.625 C-9.57038192 -0.67581945 -5.29437994 -0.78113802 0 0 Z " fill="#71757E" transform="translate(1014,354)"/>
<path d="M0 0 C3.01324953 1.4991539 5.15938601 3.17158984 7 6 C7.86628469 9.48453039 8.11860846 12.7179529 8.09765625 16.30078125 C8.09443359 17.27724609 8.09121094 18.25371094 8.08789062 19.25976562 C8.07951172 20.26716797 8.07113281 21.27457031 8.0625 22.3125 C8.05798828 23.33923828 8.05347656 24.36597656 8.04882812 25.42382812 C8.03708184 27.94927882 8.02065565 30.47460905 8 33 C6.02 33 4.04 33 2 33 C2 32.01 2 31.02 2 30 C1.236875 30.66 0.47375 31.32 -0.3125 32 C-4.81099833 34.99899889 -9.80179949 34.80702656 -15 34 C-18.00197464 32.19881522 -19.45166366 31.09667268 -21 28 C-21.30859375 26.01171875 -21.30859375 26.01171875 -21.4375 23.6875 C-21.49808594 22.92824219 -21.55867187 22.16898437 -21.62109375 21.38671875 C-20.83659301 18.37206495 -19.33310755 16.84027897 -16.87817383 14.97045898 C-13.40656792 13.17666807 -9.94165539 13.47726051 -6.125 13.6875 C-5.34125 13.71005859 -4.5575 13.73261719 -3.75 13.75585938 C-1.8324974 13.81431982 0.0840106 13.90398717 2 14 C0.71567661 10.50294871 0.71567661 10.50294871 -1 7 C-6.68367887 5.10544038 -11.49803017 5.85288982 -17 8 C-17.66 6.68 -18.32 5.36 -19 4 C-13.45794093 -1.06702544 -7.24094757 -1.19633047 0 0 Z " fill="#757880" transform="translate(938,354)"/>
<path d="M0 0 C3.02764585 1.88386853 4.62321891 3.97346242 5.89453125 7.234375 C6.12158203 9.98339844 6.12158203 9.98339844 6.08984375 13.09375 C6.08339844 14.20878906 6.07695313 15.32382812 6.0703125 16.47265625 C6.05355469 17.63152344 6.03679688 18.79039062 6.01953125 19.984375 C6.01050781 21.15871094 6.00148438 22.33304687 5.9921875 23.54296875 C5.96863188 26.44031036 5.93573777 29.33723941 5.89453125 32.234375 C3.91453125 32.234375 1.93453125 32.234375 -0.10546875 32.234375 C-0.10546875 31.244375 -0.10546875 30.254375 -0.10546875 29.234375 C-0.88921875 29.894375 -1.67296875 30.554375 -2.48046875 31.234375 C-6.68142572 34.05501754 -11.21653617 33.92818391 -16.10546875 33.234375 C-19.95907772 31.67098915 -21.42599807 30.09715757 -23.10546875 26.234375 C-23.68524596 23.39863301 -24.03128187 20.99612261 -23.10546875 18.234375 C-20.53994213 15.41027562 -18.8037616 13.55746195 -15.01879883 12.83740234 C-12.7357438 12.74341637 -10.51173183 12.7962122 -8.23046875 12.921875 C-7.44671875 12.94443359 -6.66296875 12.96699219 -5.85546875 12.99023438 C-3.93796615 13.04869482 -2.02145815 13.13836217 -0.10546875 13.234375 C-0.43546875 10.924375 -0.76546875 8.614375 -1.10546875 6.234375 C-7.40415075 4.13481433 -12.99341969 5.19702531 -19.10546875 7.234375 C-19.76546875 5.914375 -20.42546875 4.594375 -21.10546875 3.234375 C-15.39640703 -1.98533857 -7.24777492 -2.63555452 0 0 Z " fill="#73767E" transform="translate(590.10546875,354.765625)"/>
<path d="M0 0 C2.69774259 1.72761841 4.18169276 3.53425789 5.9609375 6.203125 C6.18798828 8.93041992 6.18798828 8.93041992 6.15625 12.18359375 C6.14980469 13.34697266 6.14335938 14.51035156 6.13671875 15.70898438 C6.11996094 16.92392578 6.10320313 18.13886719 6.0859375 19.390625 C6.07691406 20.61716797 6.06789063 21.84371094 6.05859375 23.10742188 C6.03499767 26.13951795 6.00207591 29.17122438 5.9609375 32.203125 C3.9809375 32.203125 2.0009375 32.203125 -0.0390625 32.203125 C-0.0390625 31.543125 -0.0390625 30.883125 -0.0390625 30.203125 C-0.8228125 30.698125 -1.6065625 31.193125 -2.4140625 31.703125 C-7.08483475 33.63585835 -11.04940863 34.09269052 -16.0390625 33.203125 C-19.15677608 31.5093973 -21.42895997 29.42333007 -23.0390625 26.203125 C-23.4140625 22.890625 -23.4140625 22.890625 -23.0390625 19.203125 C-20.8663203 16.57296339 -19.09232462 14.72975606 -16.0390625 13.203125 C-13.32146142 13.13130679 -10.63046862 13.11012994 -7.9140625 13.140625 C-7.15996094 13.14513672 -6.40585937 13.14964844 -5.62890625 13.15429688 C-3.76559123 13.16609001 -1.90231695 13.18402558 -0.0390625 13.203125 C-0.34716876 9.01693076 -0.34716876 9.01693076 -2.6640625 5.828125 C-8.18347075 4.37564914 -12.7955591 5.15687977 -18.0390625 7.203125 C-18.6990625 6.543125 -19.3590625 5.883125 -20.0390625 5.203125 C-20.0390625 4.213125 -20.0390625 3.223125 -20.0390625 2.203125 C-14.26090644 -1.64897904 -6.55657986 -2.56234155 0 0 Z " fill="#777A81" transform="translate(778.0390625,354.796875)"/>
<path d="M0 0 C4.48869171 2.84084973 7.80218327 6.04111115 10.1640625 10.86328125 C10.6590625 14.32828125 10.6590625 14.32828125 11.1640625 17.86328125 C-3.3559375 17.86328125 -17.8759375 17.86328125 -32.8359375 17.86328125 C-30.56911615 8.79599587 -30.56911615 8.79599587 -27.5859375 5.55078125 C-26.74289062 4.59751953 -26.74289062 4.59751953 -25.8828125 3.625 C-18.8284962 -2.44655849 -8.5875978 -3.44213631 0 0 Z " fill="#F6FAFD" transform="translate(713.8359375,233.13671875)"/>
<path d="M0 0 C3.98505132 3.2378542 7.68062614 6.79875228 10 11.4375 C10 13.4175 10 15.3975 10 17.4375 C-4.19 17.4375 -18.38 17.4375 -33 17.4375 C-31.89866382 9.72814676 -30.23848945 5.94826736 -24.31640625 1.04296875 C-17.62145874 -3.0315907 -7.007559 -3.60522523 0 0 Z " fill="#F7FAFD" transform="translate(1214,233.5625)"/>
<path d="M0 0 C1.98 0 3.96 0 6 0 C6.33 5.94 6.66 11.88 7 18 C8.65 16.68 10.3 15.36 12 14 C16.06440225 13.06602484 20.22474225 13.03394608 23.9453125 15.05859375 C26.09874963 16.81151238 27.75284633 18.50569267 29 21 C29.08510205 22.9593604 29.10717656 24.92162794 29.09765625 26.8828125 C29.09443359 28.04941406 29.09121094 29.21601563 29.08789062 30.41796875 C29.07951172 31.64128906 29.07113281 32.86460937 29.0625 34.125 C29.05798828 35.35605469 29.05347656 36.58710938 29.04882812 37.85546875 C29.0370133 40.90369392 29.02054028 43.95182314 29 47 C27.02 47 25.04 47 23 47 C22.98598145 45.9330188 22.98598145 45.9330188 22.97167969 44.84448242 C22.91803112 41.6247794 22.83437365 38.40653817 22.75 35.1875 C22.73582031 34.06794922 22.72164062 32.94839844 22.70703125 31.79492188 C22.67480469 30.72177734 22.64257812 29.64863281 22.609375 28.54296875 C22.58842773 27.55321045 22.56748047 26.56345215 22.54589844 25.54370117 C22.21911834 22.88043016 22.21911834 22.88043016 20.14550781 21.18481445 C17.14815526 19.52958551 15.37620997 19.44878205 12 20 C8.95095265 22.10636851 7.24611534 23.76881562 6.50561523 27.47314453 C6.28341165 30.42786538 6.20456091 33.3495892 6.1875 36.3125 C6.16236328 37.33923828 6.13722656 38.36597656 6.11132812 39.42382812 C6.05258915 41.949604 6.01621288 44.47365228 6 47 C4.02 47 2.04 47 0 47 C0 31.49 0 15.98 0 0 Z " fill="#71737B" transform="translate(637,340)"/>
<path d="M0 0 C3.42717689 2.02543067 6.20750852 4.41501704 8 8 C8.084915 9.8863912 8.107193 11.77578515 8.09765625 13.6640625 C8.09443359 14.78554688 8.09121094 15.90703125 8.08789062 17.0625 C8.07951172 18.238125 8.07113281 19.41375 8.0625 20.625 C8.05798828 21.80835938 8.05347656 22.99171875 8.04882812 24.2109375 C8.03701467 27.14067507 8.02054258 30.07031272 8 33 C5.69 33 3.38 33 1 33 C0.98598145 31.9330188 0.98598145 31.9330188 0.97167969 30.84448242 C0.91803112 27.6247794 0.83437365 24.40653817 0.75 21.1875 C0.73582031 20.06794922 0.72164062 18.94839844 0.70703125 17.79492188 C0.67480469 16.72177734 0.64257812 15.64863281 0.609375 14.54296875 C0.58842773 13.55321045 0.56748047 12.56345215 0.54589844 11.54370117 C0.21367643 8.88645263 0.21367643 8.88645263 -1.81933594 7.15356445 C-5.20860678 5.3606508 -7.38689261 5.9676836 -11 7 C-14.50947379 10.04869755 -15.27967447 12.60602333 -15.609375 17.08203125 C-15.67545073 18.99161973 -15.72177199 20.90197721 -15.75 22.8125 C-15.77964844 23.79154297 -15.80929687 24.77058594 -15.83984375 25.77929688 C-15.91029202 28.18627953 -15.96311025 30.5923079 -16 33 C-17.98 33 -19.96 33 -22 33 C-22 22.44 -22 11.88 -22 1 C-20.02 1 -18.04 1 -16 1 C-15.67 1.99 -15.34 2.98 -15 4 C-14.071875 3.01 -14.071875 3.01 -13.125 2 C-8.75140376 -0.79910159 -5.06192076 -1.07063954 0 0 Z " fill="#73767E" transform="translate(977,354)"/>
<path d="M0 0 C1.640625 0.8125 1.640625 0.8125 3.890625 2.3125 C3.230625 3.6325 2.570625 4.9525 1.890625 6.3125 C1.25125 6.1475 0.611875 5.9825 -0.046875 5.8125 C-4.08524152 5.15317485 -8.02744758 5.23246221 -12.109375 5.3125 C-12.439375 6.9625 -12.769375 8.6125 -13.109375 10.3125 C-11.954375 10.745625 -10.799375 11.17875 -9.609375 11.625 C-8.88492188 11.89957031 -8.16046875 12.17414063 -7.4140625 12.45703125 C-5.90596797 13.01681549 -4.3903289 13.55677524 -2.8671875 14.07421875 C2.678125 15.99375 2.678125 15.99375 4.890625 19.3125 C5.35174925 23.46261825 5.36470015 25.57686615 3.078125 29.125 C-0.76243843 32.96556343 -3.0974352 33.62608778 -8.421875 33.6875 C-14.01355071 33.62509291 -16.99312775 33.07592605 -21.109375 29.3125 C-20.779375 27.9925 -20.449375 26.6725 -20.109375 25.3125 C-16.109375 25.3125 -16.109375 25.3125 -14.359375 26.3125 C-10.85117851 27.87169844 -7.93321779 27.55919953 -4.109375 27.3125 C-3.449375 26.6525 -2.789375 25.9925 -2.109375 25.3125 C-2.109375 23.9925 -2.109375 22.6725 -2.109375 21.3125 C-3.15738281 20.99796875 -4.20539062 20.6834375 -5.28515625 20.359375 C-6.6642899 19.92780937 -8.04318391 19.49547737 -9.421875 19.0625 C-10.11216797 18.85753906 -10.80246094 18.65257812 -11.51367188 18.44140625 C-14.5348484 17.47813258 -16.78171299 16.63687223 -19.0546875 14.38671875 C-20.75367225 11.04538207 -20.94026366 7.89881432 -20.109375 4.3125 C-15.2802765 -2.12629799 -7.42008434 -2.41839786 0 0 Z " fill="#767880" transform="translate(624.109375,354.6875)"/>
<path d="M0 0 C3.08193978 1.6281946 5.26420667 3.03009062 7.375 5.8125 C8.67049321 10.34672623 8.41678378 13.94811713 6.6875 18.3125 C5 21 5 21 2 23 C-1.41379651 23.60175396 -4.58722471 23.61506158 -8 23 C-11.52325704 20.0519686 -12.72409917 17.94840912 -14 13.5625 C-14 8.49672239 -12.6611032 4.83907854 -9.25 1.0625 C-5.94108701 -0.50004225 -3.62002488 -0.43689955 0 0 Z " fill="#F7F8F9" transform="translate(835,359)"/>
<path d="M0 0 C3.0603333 1.7655769 5.50587755 3.50587755 8 6 C8.86123064 11.59240679 8.14210588 16.22865403 5 21 C0.98141405 23.6790573 -2.27641721 23.69610694 -7 23 C-9.87029869 21.20606332 -11.49131638 20.01736724 -13 17 C-13.51512617 12.90842645 -13.94367269 8.76410454 -11.953125 5.04296875 C-8.24751199 0.56353655 -5.72773218 -0.55074348 0 0 Z " fill="#F8F8F9" transform="translate(735,359)"/>
<path d="M0 0 C3.21954645 2.53453657 4.70432435 4.11297305 6 8 C6.39842773 12.86081826 6.48395492 15.08215446 4.1875 19.4375 C1.25839091 22.86874208 -0.41140857 22.94303954 -4.875 23.375 C-8.49578291 23.35499567 -8.93419487 23.05460426 -11.9375 20.5625 C-12.618125 19.716875 -13.29875 18.87125 -14 18 C-14.33 17.67 -14.66 17.34 -15 17 C-15.53798008 12.91903684 -15.93436984 8.75020022 -13.953125 5.0390625 C-9.95788531 0.22127346 -6.16702396 -1.07509422 0 0 Z " fill="#F8F8F9" transform="translate(697,359)"/>
<path d="M0 0 C14.575 -0.4125 14.575 -0.4125 20 3 C22.37358694 6.56038041 22.73959381 7.80896839 22 12 C20.18546258 15.00831203 18.2093542 16.58670641 15 18 C9.8221562 18.51034189 5.26596817 18.27960893 0 18 C0 12.06 0 6.12 0 0 Z " fill="#F6F6F7" transform="translate(884,346)"/>
<path d="M0 0 C2.31 0 4.62 0 7 0 C7 15.51 7 31.02 7 47 C4.69 47 2.38 47 0 47 C0 31.49 0 15.98 0 0 Z " fill="#7E8188" transform="translate(1032,340)"/>
<path d="M0 0 C9.73032529 -0.62329486 9.73032529 -0.62329486 14.4375 1.6875 C21.13092864 7.72791121 20.97841436 8.78414357 22 19 C13.42 19 4.84 19 -4 19 C-4 18.67 -4 18.34 -4 18 C4.25 18 12.5 18 21 18 C20.01732141 16.79438816 20.01732141 16.79438816 18.15234375 16.90234375 C16.1015625 16.93489583 14.05078125 16.96744792 12 17 C12 16.34 12 15.68 12 15 C6.72 14.67 1.44 14.34 -4 14 C-2.89428171 8.47140857 -2.36728873 8.01550888 2 5 C2.99 4.34 3.98 3.68 5 3 C5 2.67 5 2.34 5 2 C3.35 1.67 1.7 1.34 0 1 C0 0.67 0 0.34 0 0 Z " fill="#7C8088" transform="translate(1003,354)"/>
<path d="M0 0 C0 1.98 0 3.96 0 6 C-1.0725 6.0825 -2.145 6.165 -3.25 6.25 C-7.56390242 7.11278048 -8.54862148 7.40746252 -11 11 C-11.64081404 14.74241518 -11.69708416 18.45930136 -11.75 22.25 C-11.77964844 23.28125 -11.80929687 24.3125 -11.83984375 25.375 C-11.91044778 27.91674495 -11.96319009 30.45757783 -12 33 C-13.98 33 -15.96 33 -18 33 C-18 22.44 -18 11.88 -18 1 C-16.35 1 -14.7 1 -13 1 C-13 2.32 -13 3.64 -13 5 C-12.154375 4.175 -11.30875 3.35 -10.4375 2.5 C-7.03972892 -0.3787798 -4.43607134 -0.44360713 0 0 Z " fill="#74767E" transform="translate(812,354)"/>
<path d="M0 0 C1.75570312 0.04060547 1.75570312 0.04060547 3.546875 0.08203125 C4.43890625 0.11683594 5.3309375 0.15164063 6.25 0.1875 C5.97139186 3.8094058 5.67061885 6.50399437 3.75 9.625 C0.11451649 11.89717719 -3.56689424 12.04261002 -7.75 11.1875 C-10.07910918 9.36268455 -10.67017849 8.64362292 -11.1875 5.6875 C-10.75 3.1875 -10.75 3.1875 -9.14453125 1.54296875 C-5.95524164 -0.26238768 -3.639331 -0.10917993 0 0 Z " fill="#F3F3F5" transform="translate(933.75,371.8125)"/>
<path d="M0 0 C1.75570312 0.04060547 1.75570312 0.04060547 3.546875 0.08203125 C4.43890625 0.11683594 5.3309375 0.15164063 6.25 0.1875 C6.5625 5.828125 6.5625 5.828125 3.75 9.0625 C-0.09788341 11.89585833 -3.09047124 11.79858574 -7.75 11.1875 C-9.75 10 -9.75 10 -10.75 8.1875 C-11.1875 5.6875 -11.1875 5.6875 -10.75 3.1875 C-7.42321911 -0.22022447 -4.61352351 -0.13840571 0 0 Z " fill="#F2F3F4" transform="translate(583.75,371.8125)"/>
<path d="M0 0 C1.76923828 0.04060547 1.76923828 0.04060547 3.57421875 0.08203125 C4.47785156 0.11683594 5.38148438 0.15164063 6.3125 0.1875 C6.546875 5.8984375 6.546875 5.8984375 4.4375 8.5 C0.66858229 11.49296406 -1.89868745 11.43954277 -6.6875 11.1875 C-7.6775 10.5275 -8.6675 9.8675 -9.6875 9.1875 C-10.07451462 6.15588548 -10.2995315 4.11744185 -8.58203125 1.5078125 C-5.7496117 -0.46612112 -3.40160487 -0.10103777 0 0 Z " fill="#F6F6F7" transform="translate(771.6875,371.8125)"/>
<path d="M0 0 C2.5625 1.8125 2.5625 1.8125 4 4 C4 5.32 4 6.64 4 8 C-2.27 8 -8.54 8 -15 8 C-14 3 -14 3 -12 0.625 C-7.79300056 -1.65379136 -4.53161661 -1.32735785 0 0 Z " fill="#F6F6F8" transform="translate(1014,360)"/>
<path d="M0 0 C0 27.06 0 54.12 0 82 C-0.33 82 -0.66 82 -1 82 C-1.33 56.26 -1.66 30.52 -2 4 C-4.64 6.64 -7.28 9.28 -10 12 C-10 8.07290865 -8.72099538 7.1810287 -6.125 4.3125 C-5.04605469 3.10013672 -5.04605469 3.10013672 -3.9453125 1.86328125 C-2 0 -2 0 0 0 Z " fill="#4FB7EB" transform="translate(319,254)"/>
<path d="M0 0 C-0.66 1.98 -1.32 3.96 -2 6 C-2.58007812 5.97679687 -3.16015625 5.95359375 -3.7578125 5.9296875 C-8.61411166 5.81749577 -12.42932395 6.12485085 -17 8 C-17.66 6.68 -18.32 5.36 -19 4 C-13.30650278 -1.20548317 -7.39364896 -0.394913 0 0 Z " fill="#81838A" transform="translate(938,354)"/>
<path d="M0 0 C9.21868646 4.18492833 13.10147974 14.24842489 17 23 C18.42553764 26.88063025 19.24372075 29.85674729 19 34 C18.34 34 17.68 34 17 34 C17 35.65 17 37.3 17 39 C16.67 39 16.34 39 16 39 C15.98582031 38.12859375 15.97164063 37.2571875 15.95703125 36.359375 C15.39639705 22.35867234 11.0221674 13.49598724 2 3 C1.34 2.01 0.68 1.02 0 0 Z " fill="#ACDDF8" transform="translate(446,156)"/>
<path d="M0 0 C4.97002661 0.06570949 8.12988521 0.56575681 12.25 3.3125 C11.59 4.6325 10.93 5.9525 10.25 7.3125 C4.31 6.3225 4.31 6.3225 -1.75 5.3125 C-0.43 4.6525 0.89 3.9925 2.25 3.3125 C2.58 2.6525 2.91 1.9925 3.25 1.3125 C1.991875 1.4775 0.73375 1.6425 -0.5625 1.8125 C-3.01456585 2.13408241 -5.26650694 2.3125 -7.75 2.3125 C-5.0881996 -0.3493004 -3.70750737 0.01383398 0 0 Z " fill="#7D8087" transform="translate(615.75,353.6875)"/>
<path d="M0 0 C11.47162556 -0.11246692 19.18472355 2.20762576 29 8 C28.01 8.495 28.01 8.495 27 9 C25.05718244 8.32060981 23.14462369 7.55405981 21.25 6.75 C14.25443474 3.94395762 7.40499335 2.3655385 0 1 C0 0.67 0 0.34 0 0 Z " fill="#A1D7F6" transform="translate(413,144)"/>
<path d="M0 0 C2.31 0 4.62 0 7 0 C7 1.32 7 2.64 7 4 C4.03 4 1.06 4 -2 4 C-1.34 2.68 -0.68 1.36 0 0 Z " fill="#6B6C74" transform="translate(730,355)"/>
<path d="M0 0 C1.8871875 0.061875 1.8871875 0.061875 3.8125 0.125 C3.8125 0.455 3.8125 0.785 3.8125 1.125 C2.801875 1.145625 1.79125 1.16625 0.75 1.1875 C-4.31387044 1.84890349 -7.00446186 5.41951791 -10.1875 9.125 C-10.8475 8.795 -11.5075 8.465 -12.1875 8.125 C-5.50694444 -0.18055556 -5.50694444 -0.18055556 0 0 Z " fill="#CEECFC" transform="translate(329.1875,212.875)"/>
<path d="M0 0 C3.3 0 6.6 0 10 0 C10.33 0.66 10.66 1.32 11 2 C8.36 2.33 5.72 2.66 3 3 C3 2.34 3 1.68 3 1 C2.01 0.67 1.02 0.34 0 0 Z " fill="#7D8087" transform="translate(573,368)"/>
</svg>
